Coordinates
version=1
nRows=30
nColumns=23
inDegrees=yes

Units are S.I. units (second, meters, Newtons, ...)
If the header above contains a line with 'inDegrees', this indicates whether rotational values are in degrees (yes) or radians (no).

endheader
time	pelvis_tilt	pelvis_list	pelvis_rotation	pelvis_tx	pelvis_ty	pelvis_tz	hip_flexion_r	hip_adduction_r	hip_rotation_r	knee_angle_r	knee_angle_r_beta	ankle_angle_r	subtalar_angle_r	mtp_angle_r	hip_flexion_l	hip_adduction_l	hip_rotation_l	knee_angle_l	knee_angle_l_beta	ankle_angle_l	subtalar_angle_l	mtp_angle_l
      0.00000000	    -18.79243350	     -0.20090607	      2.94796845	      2.08132913	      0.90321152	      0.99101219	     50.32309612	     -1.57584184	     -1.03764226	     90.71547583	      1.58328374	     -3.02446974	    -25.20070352	      0.00000000	      6.64548287	      3.17336312	     -3.00358549	     28.37434917	      0.49522582	     10.70488551	     -6.92250590	      0.00000000
      0.00666667	    -20.00598269	     -0.14908310	      2.01053458	      2.08253262	      0.90588878	      0.99231848	     53.21211509	     -0.95670178	     -0.84021491	     87.51393712	      1.52740634	     -2.46520346	    -25.63914953	      0.00000000	      5.34331929	      2.61548143	     -5.08095381	     26.25836285	      0.45829489	      6.65810849	     -5.35568111	      0.00000000
      0.01333333	    -21.06933282	     -0.09905425	      1.01667982	      2.08375965	      0.90843539	      0.99370863	     55.63916113	     -0.12418789	     -0.56107724	     84.01831686	      1.46639626	     -1.53242743	    -25.90227341	      0.00000000	      3.78285771	      2.18774969	     -7.01029480	     23.94565018	      0.41793044	      2.71741713	     -3.67579055	      0.00000000
      0.02000000	    -21.86642857	     -0.28001515	      0.27268445	      2.08520612	      0.91117090	      0.99469507	     57.40616234	      0.69499976	     -0.64629723	     80.17967073	      1.39939925	     -0.46844229	    -25.89228225	      0.00000000	      1.95464510	      1.65521232	     -8.45195121	     21.60616637	      0.37709874	     -1.27741862	     -2.14615360	      0.00000000
      0.02666667	    -22.60469298	     -0.53812970	     -0.32350892	      2.08665362	      0.91373982	      0.99560920	     58.84791067	      1.46692333	     -0.88839089	     76.10202007	      1.32823082	      0.66180353	    -25.59969064	      0.00000000	      0.16185053	      1.13118958	     -9.48390208	     19.39204703	      0.33845507	     -5.14127405	     -0.86585137	      0.00000000
      0.03333333	    -23.63672489	     -0.54878387	     -0.89396420	      2.08760508	      0.91543175	      0.99668648	     60.50344001	      2.11679287	     -0.89727651	     71.94507754	      1.25567848	      1.77953038	    -25.03154518	      0.00000000	     -1.05526760	      0.85306000	    -10.43881340	     17.66267518	      0.30827184	     -8.56832595	      0.50814934	      0.00000000
      0.04000000	    -24.36892922	     -0.61872811	     -1.36351609	      2.08862453	      0.91724561	      0.99780594	     61.61388617	      2.75005483	     -0.99648234	     67.56614231	      1.17925165	      2.87041951	    -24.18473110	      0.00000000	     -2.44004987	      0.54109634	    -11.00352507	     16.22603156	      0.28319768	    -11.66411707	      1.62477284	      0.00000000
      0.04666667	    -24.24439105	     -1.23712404	     -1.56958497	      2.09040264	      0.92023890	      0.99861352	     61.42735110	      3.37971069	     -1.82980472	     62.80195783	      1.09610094	      4.12856135	    -22.87772057	      0.00000000	     -4.73113180	     -0.24852592	    -10.72163885	     14.84231091	      0.25904719	    -14.13835163	      2.20561700	      0.00000000
      0.05333333	    -24.49590215	     -1.50575874	     -1.76849183	      2.09149333	      0.92210006	      0.99962072	     61.63477191	      3.81825329	     -2.39012064	     58.08177979	      1.01371829	      5.46716100	    -21.02924302	      0.00000000	     -6.17930752	     -0.77301563	    -10.45498005	     14.36924472	      0.25079063	    -15.93153591	      2.84938389	      0.00000000
      0.06000000	    -24.60067105	     -1.79709139	     -1.85522783	      2.09253625	      0.92374002	      1.00059326	     61.53744737	      4.12837155	     -3.17198801	     53.28573257	      0.93001148	      6.95732871	    -18.58133519	      0.00000000	     -7.47829796	     -1.35577331	     -9.89345417	     14.57213948	      0.25433181	    -17.03586662	      3.28429192	      0.00000000
      0.06666667	    -24.54900341	     -2.12486825	     -1.84157918	      2.09353991	      0.92517076	      1.00144339	     61.12578254	      4.33050699	     -4.22715050	     48.45608761	      0.84571827	      8.60543451	    -15.51892176	      0.00000000	     -8.65270187	     -1.97916455	     -9.00678407	     15.42022888	      0.26913377	    -17.52981543	      3.45074954	      0.00000000
      0.07333333	    -24.60900173	     -2.34354143	     -1.78739697	      2.09423183	      0.92594559	      1.00231854	     60.74995070	      4.47378919	     -5.29519086	     43.69619137	      0.76264241	     10.23564743	    -12.24315691	      0.00000000	     -9.31839084	     -2.50444378	     -7.91150266	     17.08269511	      0.29814927	    -17.55808908	      3.22488047	      0.00000000
      0.08000000	    -23.98934520	     -2.91404735	     -1.55015531	      2.09557926	      0.92729792	      1.00271025	     59.44849269	      4.49959110	     -7.38634927	     39.03079734	      0.68121592	     12.27825446	     -7.58397888	      0.00000000	    -10.58890669	     -3.34218214	     -6.63502579	     19.04448271	      0.33238893	    -17.26594690	      3.11735855	      0.00000000
      0.08666667	    -23.56484660	     -3.36032958	     -1.29166338	      2.09656533	      0.92782115	      1.00314364	     58.33968809	      4.55872523	     -9.41024774	     34.64171866	      0.60461205	     14.05692616	     -3.17374868	      0.00000000	    -11.25310997	     -4.06094615	     -5.35756419	     21.79619771	      0.38041541	    -16.77143000	      2.84146044	      0.00000000
      0.09333333	    -23.11018781	     -3.79491988	     -1.08909281	      2.09751336	      0.92785490	      1.00357788	     57.16287642	      4.77744423	    -11.36640648	     30.58296522	      0.53377344	     15.63935110	      0.99045694	      0.00000000	    -11.70807197	     -4.74058186	     -4.26091342	     25.03707452	      0.43697939	    -16.33714358	      2.52362410	      0.00000000
      0.10000000	    -22.68017311	     -4.14969593	     -0.98808364	      2.09818423	      0.92726606	      1.00406071	     56.05877008	      5.16265856	    -12.95537742	     26.99321591	      0.47112049	     16.89673840	      4.39210941	      0.00000000	    -11.84041751	     -5.34071894	     -3.51564416	     28.84885199	      0.50350745	    -15.95003146	      2.36819338	      0.00000000
      0.10666667	    -22.32489484	     -4.44284210	     -1.00193753	      2.09870425	      0.92605699	      1.00451437	     55.08552485	      5.69788097	    -14.07314278	     23.94526102	      0.41792365	     17.80589911	      6.85173541	      0.00000000	    -11.69984855	     -5.84185946	     -2.99584761	     33.01022453	      0.57613710	    -15.88565562	      2.17058432	      0.00000000
      0.11333333	    -21.98771897	     -4.72371681	     -1.12805727	      2.09908252	      0.92434257	      1.00487883	     54.20061920	      6.33652652	    -14.82220325	     21.52736389	      0.37572338	     18.36487694	      8.40738676	      0.00000000	    -11.35730962	     -6.31734207	     -2.75261338	     37.48395551	      0.65421844	    -16.11002540	      1.98343912	      0.00000000
      0.12000000	    -21.77989622	     -4.84653235	     -1.37377024	      2.09921849	      0.92198155	      1.00505979	     53.62788430	      6.87971119	    -15.21228094	     20.00257688	      0.34911083	     18.57531519	      9.09755226	      0.00000000	    -10.71699785	     -6.54424055	     -2.54950120	     42.16668519	      0.73594749	    -16.71570360	      1.37600957	      0.00000000
      0.12666667	    -21.41042554	     -5.13727228	     -1.72754081	      2.09940371	      0.91942853	      1.00514672	     52.96229457	      7.53797890	    -15.60980183	     19.21997040	      0.33545177	     18.50719752	      9.22233639	      0.00000000	    -10.14277880	     -6.99267932	     -2.74946329	     47.00800349	      0.82044444	    -17.47790917	      1.08274954	      0.00000000
      0.13333333	    -20.99914129	     -5.38626795	     -2.18858662	      2.09958342	      0.91655723	      1.00509106	     52.42461686	      8.09230374	    -16.00133772	     19.40180373	      0.33862536	     18.19563544	      9.00294278	      0.00000000	     -9.55818736	     -7.33742688	     -3.02438175	     51.83531744	      0.90469696	    -18.66124122	      0.18584808	      0.00000000
      0.14000000	    -20.62519631	     -5.66766361	     -2.67570360	      2.09956962	      0.91323947	      1.00480850	     52.06249030	      8.55479366	    -16.39322718	     20.38683202	      0.35581734	     17.42153937	      8.26133109	      0.00000000	     -8.79321752	     -7.70342822	     -3.33801081	     56.78755177	      0.99112975	    -19.83465319	     -0.67484290	      0.00000000
      0.14666667	    -20.57155181	     -5.55242955	     -3.34600073	      2.09911614	      0.90902694	      1.00463571	     52.27374532	      8.79621348	    -16.05223647	     22.32107874	      0.38957632	     16.30182771	      6.64562052	      0.00000000	     -7.57520088	     -7.61886207	     -3.73055277	     61.74675325	      1.07768415	    -20.99621488	     -1.92182885	      0.00000000
      0.15333333	    -20.42079863	     -5.46874192	     -4.03746053	      2.09866741	      0.90463875	      1.00438257	     52.44591732	      9.05017718	    -15.49257019	     24.83640952	      0.43347712	     14.85822128	      4.53607252	      0.00000000	     -6.40544534	     -7.57253086	     -4.19299663	     66.60725762	      1.16251595	    -22.10131785	     -3.44242794	      0.00000000
      0.16000000	    -20.32802386	     -5.26829936	     -4.74751750	      2.09803046	      0.89988393	      1.00419841	     52.75299490	      9.28969005	    -14.44693519	     27.84854195	      0.48604875	     13.25434193	      1.87282036	      0.00000000	     -5.08040961	     -7.45562614	     -4.71075961	     71.38094609	      1.24583253	    -23.01230985	     -5.10016655	      0.00000000
      0.16666667	    -20.32347028	     -4.94456440	     -5.47913048	      2.09715781	      0.89483400	      1.00419635	     53.18176049	      9.60250465	    -12.86444402	     31.18704272	      0.54431658	     11.69251465	     -1.34364269	      0.00000000	     -3.55494454	     -7.27487778	     -5.26932699	     76.04502262	      1.32723602	    -23.70682346	     -6.89290794	      0.00000000
      0.17333333	    -20.36370758	     -4.52973123	     -6.20806853	      2.09610975	      0.88968472	      1.00446084	     53.63822735	     10.03099771	    -10.89820174	     34.73494857	      0.60623922	     10.55012577	     -4.71549189	      0.00000000	     -1.86854088	     -7.11543331	     -5.88891593	     80.56636344	      1.40614831	    -24.12973165	     -8.57227614	      0.00000000
      0.18000000	    -20.37641143	     -4.17532529	     -6.77931319	      2.09501880	      0.88483159	      1.00476201	     53.94873328	     10.50030429	     -8.99974763	     38.30758383	      0.66859347	      9.97910752	     -7.81412184	      0.00000000	     -0.07707872	     -7.12803312	     -6.37904805	     84.90686709	      1.48190439	    -24.43410928	    -10.33127536	      0.00000000
      0.18666667	    -20.40242520	     -3.82909143	     -7.29889104	      2.09384407	      0.88027472	      1.00531691	     54.11101829	     11.07518077	     -7.08138337	     41.78939876	      0.72936260	     10.15270485	    -10.59658082	      0.00000000	      1.86323384	     -7.28002903	     -6.83926079	     89.05804206	      1.55435606	    -24.54827665	    -11.84467121	      0.00000000
      0.19333333	    -19.61926905	     -4.29803552	     -7.43771206	      2.09362551	      0.87763709	      1.00549820	     52.95127537	     11.74837630	     -6.43265684	     44.79249667	      0.78177655	     11.23687690	    -11.83345572	      0.00000000	      2.91898148	     -8.37059820	     -6.99785319	     92.84454749	      1.62044305	    -24.48054085	    -12.87970376	      0.00000000
